<?xml version="1.0" standalone="no"?>
<!DOCTYPE svg PUBLIC "-//W3C//DTD SVG 20010904//EN"
 "http://www.w3.org/TR/2001/REC-SVG-20010904/DTD/svg10.dtd">
<svg version="1.0" xmlns="http://www.w3.org/2000/svg"
 width="820.000000pt" height="524.000000pt" viewBox="0 0 820.000000 524.000000"
 preserveAspectRatio="xMidYMid meet">

<g transform="translate(0.000000,524.000000) scale(0.100000,-0.100000)"
fill="#000000" stroke="none">
<path d="M3870 4750 c-487 -53 -934 -266 -1274 -606 -637 -636 -796 -1605
-397 -2409 111 -224 216 -372 394 -554 339 -345 760 -560 1226 -625 146 -21
430 -21 570 -1 234 34 507 122 698 226 463 251 813 661 981 1151 129 372 150
769 62 1168 -185 845 -855 1482 -1715 1630 -139 24 -413 34 -545 20z m561
-1219 c22 -17 24 -29 27 -115 l4 -96 259 0 c213 0 265 -3 289 -15 62 -32 60
-7 60 -762 0 -663 -1 -689 -19 -717 -38 -58 8 -55 -964 -56 -986 0 -943 -3
-980 59 -16 27 -17 86 -17 711 0 741 -2 713 56 759 26 20 38 21 290 21 l264 0
0 86 c0 81 10 120 34 136 6 4 160 8 342 8 312 0 333 -1 355 -19z"/>
<path d="M3830 3370 l0 -50 250 0 250 0 0 50 0 50 -250 0 -250 0 0 -50z"/>
<path d="M3210 3025 l0 -175 870 0 870 0 0 175 0 175 -870 0 -870 0 0 -175z"/>
<path d="M3210 2310 l0 -420 870 0 870 0 0 420 0 420 -337 -2 -337 -3 -7 -29
c-5 -16 -14 -33 -21 -37 -7 -5 -83 -9 -169 -9 -138 0 -158 2 -172 18 -10 10
-17 28 -17 40 l0 22 -340 0 -340 0 0 -420z"/>
</g>
</svg>
